<?xml version="1.0" encoding="UTF-8"?>
<svg version="1.1" viewBox="0 0 16 16" 
    xmlns="http://www.w3.org/2000/svg">
    <path d="m4.0941 14.233 0.90099-0.901-2.3267-2.3267-0.90099 0.9009v1.0594h1.2673v1.2674zm5.1782-9.1881c0-0.1288-0.089109-0.2179-0.21782-0.2179-0.059406 0-0.11881 0.02-0.16832 0.069l-5.3663 5.3664c-0.049505 0.049-0.069307 0.1089-0.069307 0.1683 0 0.1287 0.089109 0.2178 0.21782 0.2178 0.059406 0 0.11881-0.02 0.16832-0.069l5.3663-5.3663c0.049505-0.05 0.069307-0.1089 0.069307-0.1683zm-0.53465-1.901 4.1188 4.1188-8.2376 8.2376h-4.1188v-4.1188zm6.7624 0.9505c0 0.3366-0.13861 0.6633-0.36634 0.891l-1.6436 1.6436-4.1188-4.1188 1.6436-1.6337c0.22772-0.2376 0.55446-0.3762 0.89109-0.3762 0.33663 0 0.66337 0.1386 0.90099 0.3762l2.3267 2.3169c0.22772 0.2376 0.36634 0.5643 0.36634 0.901z" fill="#31658C" stroke-width=".009901"/>
383F43"/&gt;
</svg>
