<?xml version="1.0" encoding="UTF-8"?>
<svg version="1.1" viewBox="0 0 16 16" 
    xmlns="http://www.w3.org/2000/svg">
    <path d="m1184 768c0 17-7 33-19 45l-544 544c-12 12-28 19-45 19-35 0-64-29-64-64v-288h-448c-35 0-64-29-64-64v-384c0-35 29-64 64-64h448v-288c0-35 29-64 64-64 17 0 33 7 45 19l544 544c12 12 19 28 19 45zm352-352v704c0 159-129 288-288 288h-320c-17 0-32-15-32-32 0-28-13-96 32-96h320c88 0 160-72 160-160v-704c0-88-72-160-160-160h-288c-25 0-64 5-64-32 0-28-13-96 32-96h320c159 0 288 129 288 288z fill="#31658C"/>
</svg>
