<?xml version="1.0" encoding="UTF-8"?>
<svg version="1.1" viewBox="0 0 16 16" xmlns="http://www.w3.org/2000/svg">
 <path d="m12.375 8.625v-1.25c0-0.3418-0.2832-0.625-0.625-0.625h-2.5v-2.5c0-0.3418-0.2832-0.625-0.625-0.625h-1.25c-0.3418 0-0.625 0.2832-0.625 0.625v2.5h-2.5c-0.3418 0-0.625 0.2832-0.625 0.625v1.25c0 0.3418 0.2832 0.625 0.625 0.625h2.5v2.5c0 0.3418 0.2832 0.625 0.625 0.625h1.25c0.3418 0 0.625-0.2832 0.625-0.625v-2.5h2.5c0.3418 0 0.625-0.2832 0.625-0.625zm3.125-0.625c0 4.1406-3.3594 7.5-7.5 7.5s-7.5-3.3594-7.5-7.5c0-4.1406 3.3594-7.5 7.5-7.5s7.5 3.3594 7.5 7.5z" fill="#31658C" stroke-width=".0097656"/>
</svg>
