<?xml version="1.0" encoding="UTF-8" standalone="no"?>
<svg
   xmlns:dc="http://purl.org/dc/elements/1.1/"
   xmlns:cc="http://creativecommons.org/ns#"
   xmlns:rdf="http://www.w3.org/1999/02/22-rdf-syntax-ns#"
   xmlns:svg="http://www.w3.org/2000/svg"
   xmlns="http://www.w3.org/2000/svg"
   xmlns:sodipodi="http://sodipodi.sourceforge.net/DTD/sodipodi-0.dtd"
   xmlns:inkscape="http://www.inkscape.org/namespaces/inkscape"
   width="1536"
   height="1536"
   version="1.1"
   id="svg4"
   sodipodi:docname="bars.svg"
   inkscape:version="0.92.4 5da689c313, 2019-01-14">
  <metadata
     id="metadata10">
    <rdf:RDF>
      <cc:Work
         rdf:about="">
        <dc:format>image/svg+xml</dc:format>
        <dc:type
           rdf:resource="http://purl.org/dc/dcmitype/StillImage" />
        <dc:title></dc:title>
      </cc:Work>
    </rdf:RDF>
  </metadata>
  <defs
     id="defs8" />
  <sodipodi:namedview
     pagecolor="#ffffff"
     bordercolor="#666666"
     borderopacity="1"
     objecttolerance="10"
     gridtolerance="10"
     guidetolerance="10"
     inkscape:pageopacity="0"
     inkscape:pageshadow="2"
     inkscape:window-width="1872"
     inkscape:window-height="1012"
     id="namedview6"
     showgrid="false"
     inkscape:zoom="0.15364583"
     inkscape:cx="768"
     inkscape:cy="768"
     inkscape:window-x="48"
     inkscape:window-y="32"
     inkscape:window-maximized="1"
     inkscape:current-layer="svg4" />
  <path
     d="m 1536,1216 v 128 c 0,35 -29,64 -64,64 H 64 c -35,0 -64,-29 -64,-64 v -128 c 0,-35 29,-64 64,-64 h 1408 c 35,0 64,29 64,64 z m 0,-512 v 128 c 0,35 -29,64 -64,64 H 64 C 29,896 0,867 0,832 V 704 c 0,-35 29,-64 64,-64 h 1408 c 35,0 64,29 64,64 z m 0,-512 v 128 c 0,35 -29,64 -64,64 H 64 C 29,384 0,355 0,320 V 192 c 0,-35 29,-64 64,-64 h 1408 c 35,0 64,29 64,64 z"
     id="path2"
     inkscape:connector-curvature="0" />
</svg>
