<?xml version="1.0" encoding="UTF-8"?>
<svg version="1.1" viewBox="0 0 16 16" xmlns="http://www.w3.org/2000/svg">
 <path d="m10.5 8c0-1.377-1.123-2.5-2.5-2.5s-2.5 1.123-2.5 2.5 1.123 2.5 2.5 2.5 2.5-1.123 2.5-2.5zm5-1.0645v2.168c0 0.1465-0.11719 0.3223-0.27344 0.3516l-1.8066 0.2734c-0.10742 0.3125-0.22461 0.6055-0.38086 0.8887 0.33203 0.4785 0.68359 0.9082 1.0449 1.3476 0.05859 0.068 0.09766 0.1563 0.09766 0.2442 0 0.088-0.0293 0.1562-0.08789 0.2246-0.23438 0.3125-1.5527 1.748-1.8848 1.748-0.08789 0-0.17578-0.039-0.25391-0.088l-1.3477-1.0547c-0.2832 0.1464-0.58594 0.2734-0.88867 0.3711-0.068359 0.5957-0.12695 1.2304-0.2832 1.8164-0.039066 0.1564-0.17579 0.2736-0.35157 0.2736h-2.168c-0.17578 0-0.33203-0.127-0.35156-0.293l-0.27344-1.7968c-0.30273-0.098-0.5957-0.2149-0.87891-0.3614l-1.377 1.045c-0.068359 0.058-0.15625 0.088-0.24414 0.088-0.087891 0-0.17578-0.039-0.24414-0.1074-0.51758-0.4687-1.2012-1.0742-1.6113-1.6406-0.048828-0.068-0.068359-0.1465-0.068359-0.2246 0-0.088 0.029297-0.1563 0.078125-0.2246 0.33203-0.4492 0.69336-0.8789 1.0254-1.3379-0.16602-0.3125-0.30273-0.6348-0.40039-0.9668l-1.7871-0.2639c-0.16602-0.0293-0.2832-0.1855-0.2832-0.3515v-2.168c0-0.1465 0.11719-0.3223 0.26367-0.3516l1.8164-0.2734c0.097656-0.3125 0.22461-0.6055 0.38086-0.8985-0.33203-0.4687-0.68359-0.9082-1.0449-1.3476-0.058594-0.068-0.097656-0.1465-0.097656-0.2344 0-0.088 0.039063-0.1562 0.087891-0.2246 0.23438-0.3223 1.5527-1.748 1.8848-1.748 0.087891 0 0.17578 0.039 0.25391 0.098l1.3477 1.0449c0.2832-0.1464 0.58594-0.2734 0.88867-0.3711 0.068359-0.5957 0.12695-1.2304 0.2832-1.8164 0.039062-0.1566 0.17578-0.2738 0.35156-0.2738h2.168c0.17578 0 0.33203 0.127 0.35156 0.293l0.27344 1.7968c0.30273 0.098 0.5957 0.2149 0.87891 0.3614l1.3867-1.0449c0.05859-0.059 0.14648-0.088 0.23438-0.088s0.17578 0.039 0.24414 0.098c0.51758 0.4785 1.2012 1.084 1.6113 1.6602 0.04883 0.059 0.06836 0.1367 0.06836 0.2148 0 0.088-0.0293 0.1563-0.07813 0.2246-0.33203 0.4492-0.69336 0.8789-1.0254 1.3379 0.16602 0.3125 0.30273 0.6348 0.40039 0.957l1.7871 0.2735c0.16602 0.029 0.28321 0.1852 0.28321 0.3512z" fill="#31658C" stroke-width=".0097656"/>383F43"/&gt;
</svg>
