<?xml version="1.0" encoding="UTF-8"?>
<svg enable-background="new 0 0 512 512" version="1.1" viewBox="0 0 16 16" xmlns="http://www.w3.org/2000/svg">
 <g transform="translate(1.1565)" stroke-width=".029297">
  <path d="m5.5251 3.0195v1.3588c0.42275-0.10283 0.86426-0.15762 1.3184-0.15762 0.4541 0 0.8956 0.0548 1.3184 0.15762v-1.3588z" fill="#366489"/>
  <path d="m8.6013 3.166h-3.5156c-0.2427 0-0.43945-0.19676-0.43945-0.43946v-1.7871c0-0.24269 0.19676-0.43945 0.43945-0.43945h3.5156c0.2427 0 0.43945 0.19676 0.43945 0.43945v1.7871c0 0.2427-0.19676 0.43946-0.43945 0.43946z" fill="#3b4145"/>
  <path d="m4.3161 4.7445-1.2015-1.2015c-0.17168-0.17168-0.44971-0.17168-0.62139 0l-1.8645 1.8644c-0.17168 0.17168-0.17168 0.44971 0 0.62139l1.2428 1.2431c0.0015 1e-3 0.0029 3e-3 0.0047 4e-3 0.5417-1.0676 1.4177-1.938 2.4891-2.473-0.01436-0.0208-0.03076-0.0404-0.04922-0.0589z" fill="#3b4145"/>
  <path d="m13.058 5.4075-1.8645-1.8644c-0.17168-0.17168-0.44971-0.17168-0.62139 0l-1.2015 1.2015c-0.01846 0.0185-0.03486 0.0381-0.04922 0.0589 1.0714 0.53496 1.9474 1.4054 2.4891 2.473 0.0018-1e-3 0.0032-3e-3 0.0047-4e-3l1.2428-1.2431c0.17168-0.17168 0.17168-0.44971 0-0.62139z" fill="#3b4145"/>
  <path d="m6.8435 15.5c-3.1501 0-5.7129-2.5628-5.7129-5.7129s2.5628-5.7129 5.7129-5.7129 5.7129 2.5628 5.7129 5.7129-2.5628 5.7129-5.7129 5.7129z" fill="#366489"/>
  <path d="m6.8435 4.9531c-2.6655 0-4.834 2.1685-4.834 4.834s2.1685 4.834 4.834 4.834 4.834-2.1685 4.834-4.834-2.1685-4.834-4.834-4.834z" fill="#a6c6e3"/>
  <path d="m5.9113 10.69c-0.51401-0.51401-0.51401-1.3504 0-1.8644 0.36106-0.36106 2.4846-1.513 3.1269-1.8574 0.38232-0.20502 0.79995 0.21276 0.59496 0.59496-0.34444 0.64225-1.4963 2.7658-1.8574 3.1269-0.51396 0.51398-1.3504 0.5141-1.8645 0z" fill="#3b4145"/>
 </g>
</svg>
